# xmcd
#
# Track frame offsets:
#	150
#	14855
#	32733
#	47534
#	62466
#	79447
#	95753
#	114259
#	128738
#	147480
#	169935
#	187819
#	204594
#	219952
#	233040
#
# Disc length: 3348 seconds
#
# Revision: 1
# Processed by: cddbd v1.5.2PL0 Copyright (c) Steve Scherf et al.
# Submitted via: audiograbber 1.83.01
#
DISCID=d00d120f
DTITLE=Various Artist - CB-E8-07
DYEAR=1900
DGENRE=Karaoke
TTITLE0=Diamond Rio - Norma Jean Riley
TTITLE1=Trisha Yearwood - Woman Before Me, The
TTITLE2=Kenny Rogers - If You Want To Find Love
TTITLE3=Lorrie Morgan - Crying Time
TTITLE4=Joe Diffie - Ships That Don't Come In
TTITLE5=Pam Tillis - Let That Pony Run
TTITLE6=Clint Black with Wynonna - A Bad Goodbye
TTITLE7=Kenny Chesney - Whatever It Takes
TTITLE8=Trisha Yearwood - Song Remembers When, The
TTITLE9=Toby Keith - Who's That Man
TTITLE10=Faith Hill - But I Will
TTITLE11=Joe Diffie - Quittin' Kind, The
TTITLE12=Martina McBride - Safe In The Arms Of Love
TTITLE13=Gary Allan - Her Man
TTITLE14=Dixie Chicks - Ready To Run
EXTD=
EXTT0=
EXTT1=
EXTT2=
EXTT3=
EXTT4=
EXTT5=
EXTT6=
EXTT7=
EXTT8=
EXTT9=
EXTT10=
EXTT11=
EXTT12=
EXTT13=
EXTT14=
PLAYORDER=
